<?xml version="1.0" encoding="UTF-8" standalone="no"?>
<svg width="24px" height="24px" viewBox="0 0 24 24" version="1.1" xmlns="http://www.w3.org/2000/svg" xmlns:xlink="http://www.w3.org/1999/xlink">
    <!-- Generator: Sketch 42 (36781) - http://www.bohemiancoding.com/sketch -->
    <title>1489683220_volume-24</title>
    <desc>Created with Sketch.</desc>
    <defs></defs>
    <g id="Page-1" stroke="none" stroke-width="1" fill="none" fill-rule="evenodd">
        <g id="1489683220_volume-24" fill="#FFFFFF">
            <g id="Group-3">
                <g id="Group-5">
                    <g id="Group-4">
                        <g id="Group" fill-rule="nonzero">
                            <polygon id="Shape" points="3.99829278 5.97887578 0 5.97887578 0.00896909799 18.0227769 3.99829278 18.0227769 12 24.0337276 12 0"></polygon>
                        </g>
                        <g id="Layer_1" transform="translate(15.000000, 1.000000)">
                            <path d="M1.67045455,4.5797619 L0.395454545,6.5797619 C1.49545455,7.66666667 2.19090909,9.19642857 2.19090909,10.9059524 C2.19090909,12.6154762 1.49545455,14.1464286 0.395454545,15.2333333 L1.67045455,17.2333333 C3.37159091,15.702381 4.45454545,13.4380952 4.45454545,10.9047619 C4.45454545,8.37261905 3.37272727,6.10833333 1.67045455,4.5797619 Z" id="Path"></path>
                            <path d="M4.20340909,0.605952381 L2.94090909,2.58690476 C5.24886364,4.55119048 6.72727273,7.54642857 6.72727273,10.9047619 C6.72727273,14.2642857 5.24886364,17.2595238 2.94090909,19.2238095 L4.20340909,21.2035714 C7.11931818,18.8083333 9,15.0904762 9,10.9047619 C9,6.7202381 7.12045455,3.00238095 4.20340909,0.605952381 Z" id="Path"></path>
                        </g>
                    </g>
                </g>
            </g>
        </g>
    </g>
</svg>