<?xml version="1.0" encoding="UTF-8" standalone="no"?>
<svg width="25px" height="24px" viewBox="0 0 25 24" version="1.1" xmlns="http://www.w3.org/2000/svg" xmlns:xlink="http://www.w3.org/1999/xlink">
    <!-- Generator: Sketch 42 (36781) - http://www.bohemiancoding.com/sketch -->
    <title>1489683220_volume-24</title>
    <desc>Created with Sketch.</desc>
    <defs></defs>
    <g id="Page-1" stroke="none" stroke-width="1" fill="none" fill-rule="evenodd">
        <g id="1489683220_volume-24" fill-rule="nonzero" fill="#ff0000">
            <g id="Layer_1">
                <path d="M20.2034091,1.60595238 L18.9409091,3.58690476 C21.2488636,5.55119048 22.7272727,8.54642857 22.7272727,11.9047619 C22.7272727,15.2642857 21.2488636,18.2595238 18.9409091,20.2238095 L20.2034091,22.2035714 C23.1193182,19.8083333 25,16.0904762 25,11.9047619 C25,7.7202381 23.1204545,4.00238095 20.2034091,1.60595238 Z M17.6704545,5.5797619 L16.3954545,7.5797619 C17.4954545,8.66666667 18.1909091,10.1964286 18.1909091,11.9059524 C18.1909091,13.6154762 17.4954545,15.1464286 16.3954545,16.2333333 L17.6704545,18.2333333 C19.3715909,16.702381 20.4545455,14.4380952 20.4545455,11.9047619 C20.4545455,9.37261905 19.3727273,7.10833333 17.6704545,5.5797619 Z M3.33035714,5.95238095 L0,5.95238095 L5.98913968e-15,17.8571429 L3.33035714,17.6679652 L12.5,23.9977271 L12.5,0.200075497 L3.33035714,5.95238095 Z" id="Shape"></path>
            </g>
        </g>
    </g>
</svg>