<?xml version="1.0" encoding="UTF-8" standalone="no"?>
<svg width="33px" height="21px" viewBox="0 0 33 21" version="1.1" xmlns="http://www.w3.org/2000/svg" xmlns:xlink="http://www.w3.org/1999/xlink">
    <!-- Generator: Sketch 42 (36781) - http://www.bohemiancoding.com/sketch -->
    <title>Group</title>
    <desc>Created with Sketch.</desc>
    <defs></defs>
    <g id="Page-1" stroke="none" stroke-width="1" fill="none" fill-rule="evenodd">
        <g id="Group" fill="#ffffff">
            <path d="M0.96875,17.0983086 L0.96875,0.99630021 L3.25349444,0.99630021 L3.25349444,7.7852551 L10.9128282,7.7852551 L10.9128282,0.99630021 L13.1975726,0.99630021 L13.1975726,17.0983086 L10.9128282,17.0983086 L10.9128282,9.49337356 L3.25349444,9.49337356 L3.25349444,17.0983086 L0.96875,17.0983086 Z M31.5217452,20.3187103 C28.9903808,19.4990995 26.8688536,18.5235596 25.1571,17.3920615 C24.4752998,17.4645934 23.9494512,17.5008588 23.5795383,17.5008588 C21.4180868,17.5008588 19.6610271,16.7175257 18.3083065,15.150836 C16.955586,13.5841462 16.2792359,11.5496561 16.2792359,9.04730441 C16.2792359,6.47967402 16.9628391,4.4288644 18.330066,2.89481404 C19.6972929,1.36076368 21.5232569,0.59375 23.8080128,0.59375 C26.1000218,0.59375 27.9277991,1.36257695 29.2913994,2.90025391 C30.6549998,4.43793087 31.3367897,6.49780684 31.3367897,9.07994362 C31.3367897,12.7790722 29.9623302,15.3394109 27.21337,16.7610368 C29.0629342,17.5733945 30.9813751,18.1536412 32.96875,18.5017945 L31.5217452,20.3187103 Z M23.7427344,15.7927404 C25.3892092,15.7927404 26.6621255,15.201614 27.5615215,14.0193435 C28.4609175,12.837073 28.9106087,11.165237 28.9106087,9.00378547 C28.9106087,6.90761263 28.4609175,5.26660229 27.5615215,4.0807052 C26.6621255,2.89480811 25.4109685,2.30186846 23.8080128,2.30186846 C22.2050571,2.30186846 20.9539,2.89480811 20.0545041,4.0807052 C19.1551081,5.26660229 18.7054169,6.91486572 18.7054169,9.02554494 C18.7054169,11.128971 19.1514816,12.7826742 20.0436243,13.9867043 C20.9357671,15.1907344 22.1687914,15.7927404 23.7427344,15.7927404 Z" id="HQ"></path>
        </g>
    </g>
</svg>