<?xml version="1.0" encoding="UTF-8" standalone="no"?>
<svg width="14px" height="22px" viewBox="0 0 14 22" version="1.1" xmlns="http://www.w3.org/2000/svg" xmlns:xlink="http://www.w3.org/1999/xlink">
    <g id="Page-1" stroke="none" stroke-width="1" fill="none" fill-rule="evenodd">
        <g id="sound-copy" fill-rule="nonzero" fill="#ffffff">
            <g id="Layer_1">
                <path d="M12,0 C10.823,0 10.467,0.684 10.467,0.684 C10.467,0.684 7.406,4.047 5.298,5.531 C4.91,5.778 4.484,6 3.73,6 L2,6 C0.896,6 0,6.896 0,8 L0,14 C0,15.104 0.896,16 2,16 L3.73,16 C4.484,16 4.91,16.222 5.297,16.469 C7.405,17.953 10.466,21.317 10.466,21.317 C10.466,21.317 10.823,22 12,22 C13.104,22 14,21.105 14,20 L14,2 C14,0.895 13.104,0 12,0 Z" id="Shape"></path>
            </g>
        </g>
    </g>
</svg>